# xmcd
#
# Track frame offsets:
#	151
#	12657
#	28076
#	39831
#	53700
#	66751
#	80435
#	94194
#	107448
#	120767
#	136220
#	150419
#	164520
#	177361
#	192077
#	206257
#	220605
#	231935
#	241528
#	259034
#	271993
#	285179
#	297744
#	310002
#
# Disc length: 4304 seconds
#
# Revision: 1
# Processed by: cddbd v1.5.1PL0 Copyright (c) Steve Scherf et al.
# Submitted via: EasyCDDAExtractor 6.2.0.3
#
DISCID=3a10ce18
DTITLE=Various Artist - Vintage Mandolin Music 1927-1946
DYEAR=1900
DGENRE=Blues
TTITLE0=Louie Bluie - State Street Rag
TTITLE1=Dallas String Band - Hokum Blues
TTITLE2=Phebel Wright - Lint Head Stomp
TTITLE3=Carolina Peanut Boys - You May Leave but This Will Bring You Back
TTITLE4=Blue Boys - Easy Winner
TTITLE5=John Estes - Milk Cow Blues
TTITLE6=John Estes - Watcha Doin'?
TTITLE7=Dallas String Band - Dallas Rag
TTITLE8=Gid Tanner and his Skillet Lickers - Flop Eared Mule
TTITLE9=Arizona Dranes and Choir - I Shall Wear a Crown
TTITLE10=Mississippi Mud Steppers - Jackson Stomp
TTITLE11=Ishman Bracey - Brown Mama Blues
TTITLE12=Two Poor Boys - Two White Horses in a Line
TTITLE13=Scottdale String Band - Carbolic Rag
TTITLE14=King David's Jug Band - Rising Sun Blues
TTITLE15=Johnson Boys - Prater Blues
TTITLE16=Carolina Peanut Boys - You Got Me Rollin'
TTITLE17=Nashville Washboard Band - Arkansas Traveller
TTITLE18=Nashville Washboard Band - Going Away to Make It Lonesome
TTITLE19=Gid Tanner and his Skillet Lickers - Hawkins' Rag
TTITLE20=Paul Warmack and his Gully Jumpers - The Little Red Caboose behind th
TTITLE20=e Train
TTITLE21=Al Miller and his Market Street Boys - Somebody's Been Using That Thi
TTITLE21=ng
TTITLE22=Arthur McClain and Joe Evans - Old Hen Cackle
TTITLE23=Blue Ridge Ramblers - Jug Rag
EXTD=
EXTT0=
EXTT1=
EXTT2=
EXTT3=
EXTT4=
EXTT5=
EXTT6=
EXTT7=
EXTT8=
EXTT9=
EXTT10=
EXTT11=
EXTT12=
EXTT13=
EXTT14=
EXTT15=
EXTT16=
EXTT17=
EXTT18=
EXTT19=
EXTT20=
EXTT21=
EXTT22=
EXTT23=
PLAYORDER=
